<svg data-v-423bf9ae="" xmlns="http://www.w3.org/2000/svg" viewBox="0 0 265.2978300395319 163" class="iconAbove"><!----><!----><!----><g data-v-423bf9ae="" id="387f82dc-5782-489b-bd31-090511202355" fill="black" transform="matrix(4.702194624460447,0,0,4.702194624460447,-2.068963027903976,86.73040975785247)"><path d="M4.16 13.34C5.96 13.34 7.67 12.57 7.67 10.60C7.67 9.04 6.43 8.33 5.06 7.85C3.50 7.28 2.61 6.90 2.61 6.14C2.61 5.40 3.33 4.87 4.27 4.87C5.08 4.87 5.73 5.12 6.42 5.69L7.38 4.71C6.64 4.08 5.75 3.59 4.13 3.59C2.49 3.59 1.06 4.62 1.06 6.17C1.06 7.86 2.61 8.44 4.14 8.98C5.16 9.36 6.10 9.76 6.10 10.69C6.10 11.61 5.13 12.06 4.11 12.06C2.95 12.06 2.17 11.74 1.49 10.89L0.44 11.91C1.27 12.85 2.39 13.34 4.16 13.34ZM12.92 6.36C11.93 6.36 11.17 6.77 10.65 7.42L10.53 6.53L9.29 6.53L9.29 16.22L10.70 16.22L10.70 12.32C11.21 12.94 11.96 13.31 12.92 13.31C14.64 13.31 16.01 12.00 16.01 9.84C16.01 7.69 14.64 6.36 12.92 6.36ZM12.59 12.12C11.35 12.12 10.54 11.14 10.54 9.84C10.54 8.55 11.35 7.55 12.59 7.55C13.78 7.55 14.57 8.55 14.57 9.84C14.57 11.14 13.78 12.12 12.59 12.12ZM18.26 5.26C18.77 5.26 19.18 4.86 19.18 4.36C19.18 3.86 18.77 3.46 18.26 3.46C17.75 3.46 17.34 3.86 17.34 4.36C17.34 4.86 17.75 5.26 18.26 5.26ZM17.57 13.15L18.96 13.15L18.96 6.53L17.57 6.53ZM24.34 6.36C23.41 6.36 22.69 6.74 22.30 7.32L22.12 6.53L20.88 6.53L20.88 13.15L22.30 13.15L22.30 9.11C22.41 7.95 23.20 7.57 23.95 7.57C24.97 7.57 25.40 8.30 25.40 9.38L25.40 13.15L26.82 13.15L26.82 9.06C26.82 7 25.49 6.36 24.34 6.36ZM31.78 13.34C33.59 13.34 35.29 12.57 35.29 10.60C35.29 9.04 34.05 8.33 32.68 7.85C31.12 7.28 30.23 6.90 30.23 6.14C30.23 5.40 30.95 4.87 31.89 4.87C32.70 4.87 33.35 5.12 34.04 5.69L35 4.71C34.26 4.08 33.37 3.59 31.75 3.59C30.11 3.59 28.69 4.62 28.69 6.17C28.69 7.86 30.23 8.44 31.76 8.98C32.78 9.36 33.72 9.76 33.72 10.69C33.72 11.61 32.75 12.06 31.73 12.06C30.57 12.06 29.79 11.74 29.11 10.89L28.06 11.91C28.89 12.85 30.01 13.34 31.78 13.34ZM41.46 6.53L39.51 11.49L37.54 6.53L36.05 6.53L38.82 13.20L38.38 14.32C38.18 14.82 37.92 15.01 37.61 15.01C37.42 15.01 37.22 14.93 37.13 14.88L36.88 16.06C37.03 16.13 37.33 16.22 37.68 16.22C38.30 16.22 39.04 15.98 39.49 14.86L42.98 6.53ZM47.31 6.36C46.37 6.36 45.66 6.74 45.27 7.32L45.09 6.53L43.85 6.53L43.85 13.15L45.27 13.15L45.27 9.11C45.38 7.95 46.17 7.57 46.91 7.57C47.94 7.57 48.37 8.30 48.37 9.38L48.37 13.15L49.79 13.15L49.79 9.06C49.79 7 48.46 6.36 47.31 6.36ZM54.59 13.34C55.50 13.34 56.25 13.07 56.86 12.60L56.04 11.58C55.68 11.93 55.17 12.13 54.61 12.13C53.32 12.13 52.54 11.14 52.54 9.84C52.54 8.55 53.32 7.57 54.61 7.57C55.17 7.57 55.68 7.77 56.04 8.12L56.86 7.10C56.25 6.64 55.50 6.36 54.59 6.36C52.53 6.36 51.10 7.89 51.10 9.84C51.10 11.81 52.53 13.34 54.59 13.34Z"></path></g><!----><g data-v-423bf9ae="" id="02eb42d4-c820-4a6e-a5ab-57dcae1ef088" transform="matrix(1.9565217391304348,0,0,1.9565217391304348,35.673913043478265,-52.826086956521735)" stroke="none" fill="black"><path d="M87.5 27h-75c-1.102 0-2 .898-2 2v42c0 1.102.898 2 2 2h75c1.102 0 2-.898 2-2V29c0-1.102-.898-2-2-2zm-75 2h28.25v42H12.5zm30.25 0h14.5v42h-14.5zm16.5 42V29H87.5v42H59.25zM26.625 56.5c-6.617 0-12-5.383-12-12s5.383-12 12-12 12 5.383 12 12-5.383 12-12 12zm0-22c-5.516 0-10 4.484-10 10s4.484 10 10 10 10-4.484 10-10-4.484-10-10-10zm46.75 22c-6.617 0-12-5.383-12-12s5.383-12 12-12 12 5.383 12 12-5.383 12-12 12zm0-22c-5.516 0-10 4.484-10 10s4.484 10 10 10 10-4.484 10-10-4.484-10-10-10zm-46.75 13.75c-2.066 0-3.75-1.684-3.75-3.75s1.684-3.75 3.75-3.75 3.75 1.684 3.75 3.75-1.684 3.75-3.75 3.75zm0-5.5c-.965 0-1.75.785-1.75 1.75s.785 1.75 1.75 1.75 1.75-.785 1.75-1.75-.785-1.75-1.75-1.75zm46.75 5.5c-2.066 0-3.75-1.684-3.75-3.75s1.684-3.75 3.75-3.75 3.75 1.684 3.75 3.75-1.684 3.75-3.75 3.75zm0-5.5c-.965 0-1.75.785-1.75 1.75s.785 1.75 1.75 1.75 1.75-.785 1.75-1.75-.785-1.75-1.75-1.75zM55.5 62.199h-2.852v-1.75a1 1 0 00-1-1h-3.3a1 1 0 00-1 1v1.75h-2.852v2h2.852v1.75a1 1 0 001 1h3.3a1 1 0 001-1v-1.75H55.5zm-4.852 2.75h-1.3v-3.5h1.3zm-35.023-1.148v-2.852c0-.277.223-.5.5-.5h2.852c.277 0 .5.223.5.5v2.852c0 .277-.223.5-.5.5h-2.852a.498.498 0 01-.5-.5zm0 4.398v-2.852c0-.277.223-.5.5-.5h2.852c.277 0 .5.223.5.5V68.2c0 .277-.223.5-.5.5h-2.852a.498.498 0 01-.5-.5zm6.051-4.398v-2.852c0-.277.223-.5.5-.5h2.852c.277 0 .5.223.5.5v2.852c0 .277-.223.5-.5.5h-2.852a.498.498 0 01-.5-.5zm0 4.398v-2.852c0-.277.223-.5.5-.5h2.852c.277 0 .5.223.5.5V68.2c0 .277-.223.5-.5.5h-2.852a.498.498 0 01-.5-.5zm6.051-4.398v-2.852c0-.277.223-.5.5-.5h2.852c.277 0 .5.223.5.5v2.852c0 .277-.223.5-.5.5h-2.852a.498.498 0 01-.5-.5zm0 4.398v-2.852c0-.277.223-.5.5-.5h2.852c.277 0 .5.223.5.5V68.2c0 .277-.223.5-.5.5h-2.852a.498.498 0 01-.5-.5zm6.047-4.398v-2.852c0-.277.223-.5.5-.5h2.851c.278 0 .5.223.5.5v2.852c0 .277-.222.5-.5.5h-2.851a.498.498 0 01-.5-.5zm0 4.398v-2.852c0-.277.223-.5.5-.5h2.851c.278 0 .5.223.5.5V68.2c0 .277-.222.5-.5.5h-2.851a.498.498 0 01-.5-.5zm28.602-4.398v-2.852c0-.277.223-.5.5-.5h2.852c.277 0 .5.223.5.5v2.852c0 .277-.223.5-.5.5h-2.852a.498.498 0 01-.5-.5zm0 4.398v-2.852c0-.277.223-.5.5-.5h2.852c.277 0 .5.223.5.5V68.2c0 .277-.223.5-.5.5h-2.852a.498.498 0 01-.5-.5zm6.05-4.398v-2.852c0-.277.223-.5.5-.5h2.852c.278 0 .5.223.5.5v2.852c0 .277-.222.5-.5.5h-2.851a.498.498 0 01-.5-.5zm0 4.398v-2.852c0-.277.223-.5.5-.5h2.852c.278 0 .5.223.5.5V68.2c0 .277-.222.5-.5.5h-2.851a.498.498 0 01-.5-.5zm6.051-4.398v-2.852c0-.277.223-.5.5-.5h2.852c.277 0 .5.223.5.5v2.852c0 .277-.223.5-.5.5h-2.851a.498.498 0 01-.5-.5zm0 4.398v-2.852c0-.277.223-.5.5-.5h2.852c.277 0 .5.223.5.5V68.2c0 .277-.223.5-.5.5h-2.851a.498.498 0 01-.5-.5zm6.047-4.398v-2.852c0-.277.223-.5.5-.5h2.852c.277 0 .5.223.5.5v2.852c0 .277-.223.5-.5.5h-2.852a.498.498 0 01-.5-.5zm0 4.398v-2.852c0-.277.223-.5.5-.5h2.852c.277 0 .5.223.5.5V68.2c0 .277-.223.5-.5.5h-2.852a.498.498 0 01-.5-.5zM47.801 37.625c0 .758-.617 1.375-1.375 1.375-.757 0-1.375-.617-1.375-1.375s.618-1.375 1.375-1.375c.758 0 1.375.617 1.375 1.375zm0 4.582c0 .758-.617 1.375-1.375 1.375a1.377 1.377 0 01-1.375-1.375c0-.758.618-1.375 1.375-1.375.758 0 1.375.617 1.375 1.375zm0 4.586c0 .758-.617 1.375-1.375 1.375a1.377 1.377 0 01-1.375-1.375c0-.758.618-1.375 1.375-1.375.758 0 1.375.617 1.375 1.375zm0 4.582c0 .758-.617 1.375-1.375 1.375-.757 0-1.375-.617-1.375-1.375S45.67 50 46.426 50c.758 0 1.375.617 1.375 1.375zm7.149-13.75c0 .758-.617 1.375-1.375 1.375s-1.375-.617-1.375-1.375.617-1.375 1.375-1.375 1.375.617 1.375 1.375zm0 4.582c0 .758-.617 1.375-1.375 1.375a1.377 1.377 0 01-1.375-1.375c0-.758.617-1.375 1.375-1.375s1.375.617 1.375 1.375zm0 4.586c0 .758-.617 1.375-1.375 1.375a1.377 1.377 0 01-1.375-1.375c0-.758.617-1.375 1.375-1.375s1.375.617 1.375 1.375zm0 4.582c0 .758-.617 1.375-1.375 1.375s-1.375-.617-1.375-1.375S52.817 50 53.575 50s1.375.617 1.375 1.375z"></path></g><!----></svg>